<!-- icon666.com - MILLIONS OF FREE VECTOR ICONS --><svg id="svg28031" viewBox="0 0 16.933333 16.933334" xmlns="http://www.w3.org/2000/svg" xmlns:svg="http://www.w3.org/2000/svg"><g id="layer1" transform="translate(0 -280.067)"><path id="path26904" d="m3.1636285 280.84799c-.2645304.008-.4969192.1476-.6914303.3421l-1.0722849 1.07022c-.60967143.60966-.60564976 1.40738-.60564976 1.7756 0 1.52362.60912106 4.15774 4.31033246 7.85895 3.7012192 3.70122 6.33584 4.31085 7.859469 4.31085.36825 0 1.165953.004 1.775601-.60565l1.070221-1.07022c.194498-.19449.333449-.42897.341579-.6935.008-.26452-.121549-.51997-.341579-.74001l-2.271697-2.27169c-.3077-.3077-.815239-.3077-1.122929 0l-1.224732 1.2268c-.21866.21865-.380019.24479-.536919.22634-.15689-.0184-.319088-.10919-.437698-.20102-.6467791-.50074-1.6939576-1.21749-2.88458-2.40812-1.1906277-1.19063-1.9073813-2.23832-2.4081211-2.8851-.0918-.11861-.1825705-.27873-.2010199-.43563-.018494-.1569.0099-.32033.2284095-.53899l1.2247299-1.22421c.3076998-.30769.3076919-.81575 0-1.12345l-2.271694-2.27117c-.2200302-.22004-.4754881-.35023-.7400079-.3421z" fill="#33b9ef" font-variant-ligatures="normal" font-variant-position="normal" font-variant-caps="normal" font-variant-numeric="normal" font-variant-alternates="normal" font-feature-settings="normal" text-indent="0" text-align="start" text-decoration-line="none" text-decoration-style="solid" text-decoration-color="#000000" text-transform="none" text-orientation="mixed" white-space="normal" shape-padding="0" isolation="auto" mix-blend-mode="normal" solid-color="#000000" solid-opacity="1" vector-effect="none"></path><g fill="#dbe9ee"><path id="path26913" d="m11.746051 291.4954 3.518648 3.57963.545188-.54519c.194498-.19449.333449-.42897.341579-.6935.008-.26452-.121549-.51997-.341579-.74001l-2.271697-2.27169c-.3077-.3077-.815239-.3077-1.122929 0z" font-variant-ligatures="normal" font-variant-position="normal" font-variant-caps="normal" font-variant-numeric="normal" font-variant-alternates="normal" font-feature-settings="normal" text-indent="0" text-align="start" text-decoration-line="none" text-decoration-style="solid" text-decoration-color="#000000" text-transform="none" text-orientation="mixed" white-space="normal" shape-padding="0" isolation="auto" mix-blend-mode="normal" solid-color="#000000" solid-opacity="1" vector-effect="none"></path><path id="path26908" d="m1.959568 281.70168 3.5181302 3.58015.6976322-.69712c.3076998-.30769.3076919-.81575 0-1.12345l-2.271694-2.27117c-.2200302-.22004-.4754881-.35023-.7400079-.3421-.2645304.008-.4969192.1476-.6914303.3421z" font-variant-ligatures="normal" font-variant-position="normal" font-variant-caps="normal" font-variant-numeric="normal" font-variant-alternates="normal" font-feature-settings="normal" text-indent="0" text-align="start" text-decoration-line="none" text-decoration-style="solid" text-decoration-color="#000000" text-transform="none" text-orientation="mixed" white-space="normal" shape-padding="0" isolation="auto" mix-blend-mode="normal" solid-color="#000000" solid-opacity="1" vector-effect="none"></path></g></g></svg>